# xmcd
#
# Track frame offsets:
#	150
#	10092
#	20952
#	33555
#	45225
#	55500
#	66190
#	76180
#	85980
#	98015
#	108455
#	114895
#	125370
#	133432
#	144487
#	156985
#	165177
#	176925
#	189120
#	200905
#
# Disc length: 2776 seconds
#
# Revision: 1
# Processed by: cddbd v1.5.2PL0 Copyright (c) Steve Scherf et al.
# Submitted via: EasyCDDAExtractor 15.2.5.1
#
DISCID=090ad614
DTITLE=Johnny Cash - The Sun Years (1955-1958) - Disc 1
DYEAR=1991
DGENRE=Country
TTITLE0=Hey Porter
TTITLE1=Cry, Cry, Cry
TTITLE2=Folsom Prison Blues
TTITLE3=So Doggone Lonesome
TTITLE4=There You Go
TTITLE5=I Heard That Lonesome Whistle
TTITLE6=I Was There When It Happened
TTITLE7=Get Rhythm
TTITLE8=I Walk The Line
TTITLE9=Train Of Love
TTITLE10=You're My Baby
TTITLE11=Belshazah
TTITLE12=Country Boy
TTITLE13=Don't Make Me Go
TTITLE14=Next In Line
TTITLE15=The Wreck Of Old 97
TTITLE16=Doin' My Time
TTITLE17=Give My Love To Rose
TTITLE18=Home Of The Blues
TTITLE19=If The Good Lord's Willing
EXTD=
EXTT0=
EXTT1=
EXTT2=
EXTT3=
EXTT4=
EXTT5=
EXTT6=
EXTT7=
EXTT8=
EXTT9=
EXTT10=
EXTT11=
EXTT12=
EXTT13=
EXTT14=
EXTT15=
EXTT16=
EXTT17=
EXTT18=
EXTT19=
PLAYORDER=
